<?xml version="1.0" encoding="UTF-8"?>
<svg version="1.1" viewBox="0 0 2048 2048" width="512" height="512" xmlns="http://www.w3.org/2000/svg">
<path transform="translate(282)" d="m0 0h1485l1 1 32 6 23 6 28 10 15 7 23 12 11 7 12 8 17 13 14 12 13 12 14 15 9 11 14 19 12 19 11 20 11 25 9 27 7 28 3 17h2v1047l-2 1-4 23-7 27-7 21-12 28-13 23-11 17-14 19-13 15-24 24-11 9-17 13-17 11-21 12-21 10-27 10-22 6-24 5-23 3-14 1h-409l-16-3-14-6-14-10-9-9-7-10-7-14-4-15-1-8v-9l2-14 4-13 7-13 10-13h2l2-4 13-9 12-6 16-4 11-1 398-1 21-3 21-6 16-7 15-8 14-10 11-10h2l2-4 7-7 12-16 9-16 8-19 5-19 3-21v-983l-3-22-5-19-9-21-8-14-10-14-12-13-11-10-16-11-16-9-21-8-16-4-16-2-22-1h-1400l-19 1-18 3-20 6-16 7-14 8-12 9-13 11-5 6-5 5-10 13-9 15-7 15-6 17-4 20-1 9-1 32v934l1 23 3 20 5 17 6 15 9 17 10 14 12 14 11 10 17 12 14 8 19 8 19 5 22 3 716 1 18 2 14 5 14 8 12 11 7 8 8 14 5 15 1 7 1 24v318l-1 36h242l17 2 14 5 11 6 10 8 9 9 9 14 5 12 3 12v25l-4 16-8 16-8 10-8 8-14 9-11 5-11 4h-675l-2-2-13-5-11-6-11-9-9-10-8-13-5-13-3-17v-9l2-14 4-13 7-13 10-13h2l2-4 13-9 12-6 16-4 11-1h241l-1-286-639-1-25-2-24-4-30-8-25-9-24-11-22-12-12-8-14-10-11-9-10-9-8-7-16-16-9-11-7-8-13-18-11-18-12-22-11-26-7-21-6-25-5-26-1-1v-1037l5-24 6-25 8-25 10-24 13-25 13-20 10-14 14-17 11-12 13-13 11-9 12-10 20-14 15-9 23-12 23-10 25-8 24-6 23-4z"/>
<path transform="translate(539,319)" d="m0 0h10l14 2 12 4 13 7 10 8 12 11 93 93 4-2 102-102 12-9 14-7 9-3 16-2 17 1 16 4 15 8 10 8 9 9 9 14 5 12 3 12v26l-4 15-8 16-9 11-4 5-6 5-2 3h-2l-2 4h-2l-2 4h-2l-2 4h-2l-2 4h-2l-2 4h-2l-2 4-32 32h-2l-2 4h-2l-2 4h-2l-2 4h-2l-2 4h-2l-2 4h-2l-2 4h-2l-2 4-6 5-1 4 98 98v2h2l9 11 7 11 5 12 3 12v26l-4 15-8 16-7 9-10 10-13 8-11 5-17 4h-22l-13-3-14-6-14-10-106-106-8 6-101 101-14 9-11 5-17 4h-22l-13-3-14-6-14-10-9-9-7-10-7-14-4-14-1-8v-11l3-17 4-11 6-11 10-13 102-102-1-4-6-5-7-8-92-92-7-10-8-16-3-12-1-8v-12l3-17 6-15 9-13 9-10 14-10 11-5 9-3z"/>
<path transform="translate(1179,319)" d="m0 0h10l14 2 12 4 13 7 10 8 12 11 93 93 4-2 102-102 12-9 14-7 9-3 16-2 17 1 16 4 15 8 10 8 9 9 9 14 5 12 3 12v26l-4 15-8 16-9 11-4 5-6 5-6 7-6 5-2 3h-2l-2 4h-2l-2 4h-2l-2 4-36 36h-2l-2 4h-2l-2 4h-2l-2 4h-2l-2 4-4 4h-2l-2 4-6 5-1 4 98 98v2h2l9 11 7 11 5 12 3 12v26l-4 15-8 16-8 10-8 8-10 7-15 7-17 4h-22l-13-3-14-6-11-8-10-9-99-99-8 6-101 101-14 9-11 5-17 4h-22l-13-3-14-6-14-10-9-9-7-10-7-14-4-14-1-8v-11l3-17 4-11 6-11 10-13 102-102-1-4-6-5-7-8-92-92-7-10-8-16-3-12-1-7v-13l3-17 6-15 9-13 9-10 14-10 11-5 9-3z"/>
<path transform="translate(1010,959)" d="m0 0h27l28 2 29 4 28 6 24 7 25 9 23 10 16 8 22 12 12 8 16 11 13 10 13 11 8 7 12 11 10 10 7 8 9 10 13 17 13 18 11 18 8 16 3 9 2 12v12l-3 17-5 13-7 12-9 10-10 9-17 9-14 4-6 1h-21l-16-4-10-4-11-7-12-11-9-12-12-19-9-12-12-14-16-16-10-8-15-11-20-12-23-11-19-7-23-6-19-3-27-2-25 1-23 3-24 6-23 8-17 8-19 11-13 9-16 13-12 11-14 15-13 17-10 16-8 11-9 10-11 8-14 7-13 4-7 1h-21l-16-4-16-8-10-8-9-9-9-14-5-11-4-17v-17l3-15 5-13 12-20 11-16 9-12 13-16 7-8 4-5h2l2-4 19-19 8-7 16-13 15-11 18-12 20-12 21-11 25-11 22-8 28-8 34-7 33-4z"/>
<path transform="translate(1768)" d="m0 0 3 1z"/>
</svg>
