<?xml version="1.0" encoding="iso-8859-1"?>
<!-- Generator: Adobe Illustrator 17.0.0, SVG Export Plug-In . SVG Version: 6.00 Build 0)  -->
<!DOCTYPE svg PUBLIC "-//W3C//DTD SVG 1.1//EN" "http://www.w3.org/Graphics/SVG/1.1/DTD/svg11.dtd">
<svg version="1.1" id="Layer_1" xmlns="http://www.w3.org/2000/svg" xmlns:xlink="http://www.w3.org/1999/xlink" x="0px" y="0px"
	 width="612px" height="792px" viewBox="0 0 612 792" style="enable-background:new 0 0 612 792;" xml:space="preserve">
<path style="fill:#4B3B70;stroke:#4A3B70;stroke-miterlimit:10;" d="M504.813,326.428c0,76.22-52.99,139.67-156.54,139.67h-49.39
	c-0.61-0.06-1.17-0.11-1.77-0.11c-0.39,0-0.72,0-1.05-0.06h-3.43c-65.77,0-119.65,50.67-124.68,115.17v-103.38
	c0.1-1.25,0.21-2.49,0.35-3.72c6.77-62.72,59.83-111.45,124.33-111.45h3.43c0.33,0.06,0.66,0.06,1.05,0.06
	c0.6,0,1.16,0.05,1.77,0.11h49.39c79.65,0,129.38-37.51,148.02-89.56l0.01,0.01c0.35,1.01,0.7,2.02,1.03,3.05
	c1.22,3.73,2.28,7.55,3.19,11.46c0.6,2.5,1.13,5.03,1.59,7.59c1.02,5.56,1.74,11.28,2.18,17.15
	C504.643,316.998,504.813,321.678,504.813,326.428z"/>
<path style="fill:#B6A1C8;" d="M496.293,273.158c-18.64,52.05-68.37,89.56-148.02,89.56h-49.39c-0.61-0.06-1.17-0.11-1.77-0.11
	c-0.39,0-0.72,0-1.05-0.06h-3.43c-64.5,0-117.56,48.73-124.33,111.45c-0.14,1.23-0.25,2.47-0.35,3.72v-188.46
	c0-57.53,46.63-104.16,104.16-104.16h76.17c46.01,0,82.05,11.48,107.87,31.55c1.4,1.09,2.76,2.2,4.1,3.33
	c0.67,0.56,1.33,1.14,1.98,1.72c1.96,1.74,3.85,3.53,5.68,5.38c0.83,0.83,1.64,1.68,2.43,2.54c3.88,4.16,7.43,8.58,10.65,13.23
	c1.3,1.87,2.54,3.79,3.74,5.74c1.53,2.49,2.97,5.05,4.32,7.67c0.56,1.1,1.12,2.2,1.65,3.32c0.59,1.23,1.17,2.48,1.72,3.74
	C493.833,266.518,495.123,269.798,496.293,273.158z"/>
<path style="opacity:0.4;fill:#4B3B70;enable-background:new    ;" d="M496.293,273.158c-18.64,52.05-68.37,89.56-148.02,89.56
	h-49.39c-0.61-0.06-1.17-0.11-1.77-0.11c-0.39,0-0.72,0-1.05-0.06h-3.43c-64.5,0-117.56,48.73-124.33,111.45
	c-0.12,0.41-0.24,0.81-0.35,1.22v-103.38c14.77-52.62,63.08-91.14,120.42-91.14h3.43c0.33,0.06,0.66,0.06,1.05,0.06
	c0.6,0,1.16,0.05,1.77,0.11h49.39c58.28,0,100.54-20.08,126.33-51.25c3.88,4.16,7.43,8.58,10.65,13.23c1.3,1.87,2.54,3.79,3.74,5.74
	c1.53,2.49,2.97,5.05,4.32,7.67c0.56,1.1,1.12,2.2,1.65,3.32c0.59,1.23,1.17,2.48,1.72,3.74
	C493.833,266.518,495.123,269.798,496.293,273.158z"/>
<path style="opacity:0.5;fill:#4B3B70;enable-background:new    ;" d="M496.293,273.158c-18.64,52.05-68.37,89.56-148.02,89.56
	h-49.39c-0.61-0.06-1.17-0.11-1.77-0.11c-0.39,0-0.72,0-1.05-0.06h-3.43c-64.5,0-117.56,48.73-124.33,111.45
	c-0.14,1.23-0.25,2.47-0.35,3.72v-65.27c14.77-52.62,63.08-91.14,120.42-91.14h3.43c0.33,0.06,0.66,0.06,1.05,0.06
	c0.6,0,1.16,0.05,1.77,0.11h49.39c70.86,0,118.04-29.69,140.72-72.89c1.53,2.49,2.97,5.05,4.32,7.67c0.56,1.1,1.12,2.2,1.65,3.32
	c0.59,1.23,1.17,2.48,1.72,3.74C493.833,266.518,495.123,269.798,496.293,273.158z"/>
<path style="fill:#B6A1C8;" d="M266.24,548.86c0,0.11,0,0.21-0.01,0.32c-0.01,0.83-0.05,1.64-0.14,2.44
	c-0.08,0.77-0.19,1.52-0.33,2.27c-0.46,2.43-1.24,4.73-2.31,6.88h-0.01c-0.7,1.41-1.53,2.74-2.47,4c-0.9,1.23-1.92,2.39-3.03,3.45
	c-1.45,1.37-3.06,2.59-4.79,3.61c-3.99,2.37-8.64,3.73-13.61,3.73c-0.39,0-0.77-0.01-1.16-0.03c-0.61-0.02-1.22-0.07-1.81-0.14
	c-1.33-0.14-2.62-0.38-3.88-0.72c-1.14-0.3-2.25-0.68-3.31-1.12c-0.47-0.19-0.93-0.39-1.38-0.61c-0.81-0.39-1.6-0.82-2.37-1.28
	c-0.27-0.16-0.53-0.33-0.79-0.51c-0.15-0.09-0.29-0.18-0.43-0.28v-0.01c-0.47-0.33-0.94-0.68-1.4-1.03
	c-0.76-0.61-1.49-1.25-2.19-1.93c-1.18-1.17-2.25-2.43-3.2-3.8c-0.44-0.64-0.86-1.3-1.25-1.98c-0.01-0.01-0.01-0.02-0.02-0.03
	c-0.08-0.15-0.16-0.28-0.24-0.43c-2.08-3.8-3.26-8.16-3.26-12.8c0-14.74,11.95-26.69,26.7-26.69c9.34,0,17.57,4.8,22.33,12.08
	c0.19,0.29,0.38,0.59,0.55,0.89c0.77,1.27,1.43,2.6,1.97,3.99c0.09,0.22,0.17,0.45,0.25,0.67c0.39,1.08,0.71,2.17,0.96,3.29
	c0.1,0.43,0.18,0.87,0.25,1.31c0.03,0.19,0.06,0.38,0.09,0.57v0.01C266.14,546.24,266.24,547.54,266.24,548.86z"/>
<path style="fill:#4B3B70;" d="M216.35,562.09"/>
<path style="fill:#4B3B70;" d="M216.35,562.09"/>
<path style="opacity:0.5;fill:#4B3B70;" d="M266.24,548.86c0,0.11,0,0.21-0.01,0.32c-0.01,0.83-0.05,1.64-0.14,2.44
	c-0.08,0.77-0.19,1.52-0.33,2.27c-0.46,2.43-1.24,4.73-2.31,6.88h-0.01c-0.7,1.41-1.53,2.74-2.47,4c-0.9,1.23-1.92,2.39-3.03,3.45
	c-1.45,1.37-3.06,2.59-4.79,3.61c-3.99,2.37-8.64,3.73-13.61,3.73c-0.39,0-0.77-0.01-1.16-0.03c-0.61-0.02-1.22-0.07-1.81-0.14
	c-1.33-0.14-2.62-0.38-3.88-0.72c-1.14-0.3-2.25-0.68-3.31-1.12c-0.47-0.19-0.93-0.39-1.38-0.61c-0.81-0.39-1.6-0.82-2.37-1.28
	c-0.27-0.16-0.53-0.33-0.79-0.51c-0.15-0.09-0.29-0.18-0.43-0.28v-0.01c-0.47-0.33-0.94-0.68-1.4-1.03
	c-0.76-0.61-1.49-1.25-2.19-1.93c-1.18-1.17-2.25-2.43-3.2-3.8c-0.44-0.64-0.86-1.3-1.25-1.98c3.51,0.05,16.74-0.64,23.17-13.26
	c7.46-14.61,22.89-13.72,22.89-13.72c0.77,1.27,1.43,2.6,1.97,3.99c0.09,0.22,0.17,0.45,0.25,0.67c0.39,1.08,0.71,2.17,0.96,3.29
	c0.1,0.43,0.18,0.87,0.25,1.31c0.03,0.19,0.06,0.38,0.09,0.57v0.01C266.14,546.24,266.24,547.54,266.24,548.86z"/>
<path style="opacity:0.5;fill:#4B3B70;" d="M266.24,548.86c0,0.11,0,0.21-0.01,0.32c-0.01,0.83-0.05,1.64-0.14,2.44
	c-0.08,0.77-0.19,1.52-0.33,2.27c-0.46,2.43-1.24,4.73-2.31,6.88h-0.01c-0.7,1.41-1.53,2.74-2.47,4c-0.9,1.23-1.92,2.39-3.03,3.45
	c-1.45,1.37-3.06,2.59-4.79,3.61c-3.99,2.37-8.64,3.73-13.61,3.73c-0.39,0-0.77-0.01-1.16-0.03c-0.61-0.02-1.22-0.07-1.81-0.14
	c-1.33-0.14-2.62-0.38-3.88-0.72c-1.14-0.3-2.25-0.68-3.31-1.12c-0.47-0.19-0.93-0.39-1.38-0.61c-0.81-0.39-1.6-0.82-2.37-1.28
	c-0.27-0.16-0.53-0.33-0.79-0.51c5.46-0.66,14.48-3.29,19.45-13.04c6.14-12.03,17.68-13.55,21.57-13.71
	c0.03,0.19,0.06,0.38,0.09,0.57v0.01C266.14,546.24,266.24,547.54,266.24,548.86z"/>
<path style="opacity:0.5;fill:#4B3B70;" d="M266.09,551.62c-0.08,0.77-0.19,1.52-0.33,2.27c-0.46,2.43-1.24,4.73-2.31,6.88h-0.01
	c-0.7,1.41-1.53,2.74-2.47,4c-0.9,1.23-1.92,2.39-3.03,3.45c-1.45,1.37-3.06,2.59-4.79,3.61c-3.99,2.37-8.64,3.73-13.61,3.73
	c-0.39,0-0.77-0.01-1.16-0.03c4.4-1.79,9.07-5.1,12.16-11.17C254.62,556.38,261.08,553.02,266.09,551.62z"/>
</svg>
