<?xml version="1.0" encoding="iso-8859-1"?>
<!-- Generator: Adobe Illustrator 17.0.0, SVG Export Plug-In . SVG Version: 6.00 Build 0)  -->
<!DOCTYPE svg PUBLIC "-//W3C//DTD SVG 1.1//EN" "http://www.w3.org/Graphics/SVG/1.1/DTD/svg11.dtd">
<svg version="1.1" id="Layer_1" xmlns="http://www.w3.org/2000/svg" xmlns:xlink="http://www.w3.org/1999/xlink" x="0px" y="0px"
	 width="3000px" height="1500px" viewBox="0 0 3000 1500" style="enable-background:new 0 0 3000 1500;" xml:space="preserve">
<path style="fill:#4B3B70;stroke:#4A3B70;stroke-miterlimit:10;" d="M1045.03,578.44c0,76.22-52.99,139.67-156.54,139.67H839.1
	c-0.61-0.06-1.17-0.11-1.77-0.11c-0.39,0-0.72,0-1.05-0.06h-3.43c-65.77,0-119.65,50.67-124.68,115.17V729.73
	c0.1-1.25,0.21-2.49,0.35-3.72c6.77-62.72,59.83-111.45,124.33-111.45h3.43c0.33,0.06,0.66,0.06,1.05,0.06
	c0.6,0,1.16,0.05,1.77,0.11h49.39c79.65,0,129.38-37.51,148.02-89.56l0.01,0.01c0.35,1.01,0.7,2.02,1.03,3.05
	c1.22,3.73,2.28,7.55,3.19,11.46c0.6,2.5,1.13,5.03,1.59,7.59c1.02,5.56,1.74,11.28,2.18,17.15
	C1044.86,569.01,1045.03,573.69,1045.03,578.44z"/>
<path style="fill:#212531;" d="M1036.51,525.17c-18.64,52.05-68.37,89.56-148.02,89.56H839.1c-0.61-0.06-1.17-0.11-1.77-0.11
	c-0.39,0-0.72,0-1.05-0.06h-3.43c-64.5,0-117.56,48.73-124.33,111.45c-0.14,1.23-0.25,2.47-0.35,3.72V541.27
	c0-57.53,46.63-104.16,104.16-104.16h76.17c46.01,0,82.05,11.48,107.87,31.55c1.4,1.09,2.76,2.2,4.1,3.33
	c0.67,0.56,1.33,1.14,1.98,1.72c1.96,1.74,3.85,3.53,5.68,5.38c0.83,0.83,1.64,1.68,2.43,2.54c3.88,4.16,7.43,8.58,10.65,13.23
	c1.3,1.87,2.54,3.79,3.74,5.74c1.53,2.49,2.97,5.05,4.32,7.67c0.56,1.1,1.12,2.2,1.65,3.32c0.59,1.23,1.17,2.48,1.72,3.74
	C1034.05,518.53,1035.34,521.81,1036.51,525.17z"/>
<g id="TEXTS">
</g>
<path style="fill:#212531;" d="M1072.906,670.085l60.196-4.742l-14.958,93.029c-0.975,6.082-1.459,11.919-1.459,17.512
	c0,6.812,1.214,11.617,3.648,14.411c2.428,2.798,6.567,4.195,12.404,4.195c8.026-0.24,15.87-2.976,23.531-8.209
	c7.661-5.227,14.285-12.221,19.883-20.977l16.052,18.606c-25.783,35.513-55.698,53.265-89.746,53.265
	c-16.298,0-28.274-3.711-35.935-11.127s-11.492-19.273-11.492-35.571c0-6.806,0.729-14.593,2.189-23.349L1072.906,670.085z"/>
<path style="fill:#212531;" d="M1191.47,670.085l60.196-4.742l-4.013,25.173c9.97-8.026,20.185-14.228,30.645-18.606
	c10.454-4.378,20.67-6.567,30.645-6.567c30.884,0,46.333,19.096,46.333,57.277c0,15.083-2.006,29.311-6.02,42.684
	c-4.013,13.378-9.667,25.173-16.964,35.388c3.403,0.729,6.806,1.094,10.215,1.094c4.133,0,7.781-0.484,10.945-1.459
	c15.562-3.648,29.67-15.323,42.319-35.023l16.052,18.606c-10.945,15.814-22.745,27.607-35.388,35.388
	c-12.649,7.787-26.877,11.675-42.684,11.675c-9.73,0-19.701-1.699-29.915-5.108c-13.624,7.536-28.947,11.31-45.968,11.31
	c-9.73,0-20.675-1.339-32.834-4.014l-11.31,70.776h-59.466L1191.47,670.085z M1254.585,792.665
	c12.159-0.239,21.827-5.347,29.003-15.323c7.171-9.969,10.762-24.198,10.762-42.684c0-8.511-1.459-14.713-4.378-18.606
	c-2.918-3.887-7.422-5.837-13.499-5.837c-9.485,0-20.92,5.472-34.293,16.417l-10.215,63.115
	C1238.772,791.696,1246.313,792.665,1254.585,792.665z"/>
<path style="fill:#212531;" d="M1480.774,836.809c-27.242,0-48.219-6.624-62.932-19.883c-14.718-13.253-22.072-32.161-22.072-56.73
	c0-18.48,3.95-34.897,11.856-49.251c7.901-14.348,18.908-25.538,33.017-33.564c14.103-8.026,30.155-12.039,48.157-12.039
	c19.455,0,34.897,4.503,46.332,13.498c11.429,9.001,17.147,21.285,17.147,36.847c-0.245,17.757-8.089,32.287-23.531,43.596
	c-15.448,11.309-36.3,17.819-62.567,19.518c3.158,5.837,7.843,10.397,14.046,13.68c6.202,3.284,13.556,4.925,22.072,4.925
	c14.103,0,27.236-2.856,39.401-8.573c12.158-5.712,21.764-13.555,28.82-23.531l16.053,18.606
	C1561.52,819.178,1526.252,836.809,1480.774,836.809z M1488.982,743.232c8.631-5.472,13.072-12.341,13.316-20.613
	c0-4.862-1.403-8.573-4.195-11.127c-2.799-2.554-6.629-3.831-11.491-3.831c-8.756,0-15.933,4.076-21.525,12.222
	c-5.598,8.151-8.636,18.788-9.121,31.922C1469.339,751.566,1480.346,748.705,1488.982,743.232z"/>
<path style="fill:#212531;" d="M1665.008,823.858c-14.838,8.875-31.135,13.316-48.886,13.316c-16.543,0-28.702-3.774-36.482-11.31
	c-7.787-7.536-11.675-19.455-11.675-35.752c0-8.266,0.604-15.928,1.824-22.985l29.915-190.438l60.561-5.107l-29.551,186.789
	c-0.975,5.837-1.46,11.554-1.46,17.147c0,6.812,1.277,11.675,3.831,14.594c2.553,2.918,6.988,4.378,13.315,4.378
	c8.266-0.24,16.292-2.976,24.079-8.209c7.781-5.227,14.468-12.221,20.066-20.977l16.052,18.606
	C1693.704,801.667,1679.84,814.983,1665.008,823.858z"/>
<path style="fill:#212531;" d="M1705.502,670.085l60.196-4.742l-14.958,93.029c-0.975,6.082-1.46,11.919-1.46,17.512
	c0,6.812,1.214,11.617,3.649,14.411c2.428,2.798,6.567,4.195,12.404,4.195c8.026-0.24,15.87-2.976,23.531-8.209
	c7.661-5.227,14.285-12.221,19.883-20.977l16.052,18.606c-25.783,35.513-55.698,53.265-89.746,53.265
	c-16.297,0-28.274-3.711-35.935-11.127c-7.662-7.416-11.492-19.273-11.492-35.571c0-6.806,0.73-14.593,2.189-23.349
	L1705.502,670.085z"/>
<path style="fill:#212531;" d="M2003.01,824.041c-13.988,8.756-29.128,13.134-45.419,13.134c-27.727,0-41.591-13.009-41.591-39.036
	c0-4.133,0.365-8.756,1.095-13.864l8.391-51.805c0.485-3.887,0.73-6.441,0.73-7.661c0-9.97-4.869-14.958-14.594-14.958
	c-10.46,0-22.983,5.233-37.576,15.687l-16.782,106.529h-59.466l25.537-161.982l60.196-4.742l-4.013,25.173
	c12.888-8.756,24.745-15.14,35.57-19.153c10.82-4.013,21.341-6.019,31.557-6.019c13.619,0,24.016,3.409,31.192,10.215
	c7.172,6.812,10.762,16.543,10.762,29.186c0,3.893-0.365,8.271-1.093,13.134l-8.756,52.535c-0.73,4.377-1.095,8.026-1.095,10.944
	c0,4.623,0.849,7.969,2.553,10.033c1.699,2.069,4.378,3.101,8.026,3.101c6.077,0,12.708-2.736,19.883-8.209
	c7.172-5.472,13.436-12.461,18.788-20.977l16.054,18.606C2030.31,801.912,2016.994,815.285,2003.01,824.041z"/>
<path style="fill:#212531;" d="M2111.543,836.809c-27.242,0-48.22-6.624-62.932-19.883c-14.719-13.253-22.072-32.161-22.072-56.73
	c0-18.48,3.951-34.897,11.857-49.251c7.901-14.348,18.908-25.538,33.016-33.564c14.103-8.026,30.155-12.039,48.157-12.039
	c19.455,0,34.897,4.503,46.332,13.498c11.429,9.001,17.147,21.285,17.147,36.847c-0.245,17.757-8.089,32.287-23.531,43.596
	c-15.448,11.309-36.3,17.819-62.567,19.518c3.158,5.837,7.844,10.397,14.046,13.68c6.202,3.284,13.555,4.925,22.072,4.925
	c14.102,0,27.236-2.856,39.4-8.573c12.159-5.712,21.764-13.555,28.821-23.531l16.052,18.606
	C2192.288,819.178,2157.02,836.809,2111.543,836.809z M2119.751,743.232c8.63-5.472,13.071-12.341,13.316-20.613
	c0-4.862-1.403-8.573-4.196-11.127c-2.799-2.554-6.629-3.831-11.491-3.831c-8.756,0-15.932,4.076-21.525,12.222
	c-5.598,8.151-8.636,18.788-9.121,31.922C2100.107,751.566,2111.115,748.705,2119.751,743.232z"/>
<g>
	<path style="fill:#4B3B70;" d="M1139.845,613.896c0,2.14-0.2,4.23-0.59,6.25c-0.57,3.02-1.55,5.89-2.88,8.56h-0.01
		c-1.73,3.47-4.06,6.6-6.84,9.26c-1.8,1.71-3.8,3.22-5.95,4.49c-4.96,2.95-10.74,4.64-16.92,4.64c-1.25,0-2.49-0.07-3.7-0.21
		c-1.65-0.18-3.26-0.48-4.83-0.9c-2.03-0.53-3.98-1.26-5.83-2.15c-1.01-0.48-1.99-1.02-2.94-1.59c-1.13-0.7-2.22-1.46-3.26-2.28
		c-0.95-0.75-1.86-1.55-2.72-2.4c-1.47-1.45-2.8-3.02-3.98-4.72c-0.56-0.81-1.09-1.64-1.58-2.5c-0.1-0.18-0.2-0.35-0.3-0.53
		c-2.59-4.73-4.06-10.15-4.06-15.92c0-18.33,14.86-33.19,33.2-33.19c11.62,0,21.85,5.97,27.77,15.02c1.25,1.9,2.3,3.93,3.14,6.07
		c0.11,0.28,0.21,0.56,0.31,0.84c0.48,1.33,0.88,2.69,1.19,4.09c0.17,0.77,0.31,1.54,0.43,2.33v0.01
		C1139.725,610.636,1139.845,612.256,1139.845,613.896z"/>
	<path style="opacity:0.3;fill:#212531;" d="M1139.845,613.896c0,2.14-0.2,4.23-0.59,6.25c-0.57,3.02-1.55,5.89-2.88,8.56h-0.01
		c-1.73,3.47-4.06,6.6-6.84,9.26c-1.8,1.71-3.8,3.22-5.95,4.49c-4.96,2.95-10.74,4.64-16.92,4.64c-1.25,0-2.49-0.07-3.7-0.21
		c-1.65-0.18-3.26-0.48-4.83-0.9c-2.03-0.53-3.98-1.26-5.83-2.15c-1.01-0.48-1.99-1.02-2.94-1.59c-1.13-0.7-2.22-1.46-3.26-2.28
		c-0.95-0.75-1.86-1.55-2.72-2.4c-1.47-1.45-2.8-3.02-3.98-4.72c0,0,0.62-18.53,27.26-18.95c26.63-0.41,25.41-13.43,27.77-18.17
		c1.25,1.9,2.3,3.93,3.14,6.07c0.11,0.28,0.21,0.56,0.31,0.84c0.48,1.33,0.88,2.69,1.19,4.09c0.17,0.77,0.31,1.54,0.43,2.33v0.01
		C1139.725,610.636,1139.845,612.256,1139.845,613.896z"/>
	<path style="opacity:0.3;fill:#212531;" d="M1139.845,613.896c0,2.14-0.2,4.23-0.59,6.25c-0.57,3.02-1.55,5.89-2.88,8.56h-0.01
		c-1.73,3.47-4.06,6.6-6.84,9.26c-1.8,1.71-3.8,3.22-5.95,4.49c-4.96,2.95-10.74,4.64-16.92,4.64c-1.25,0-2.49-0.07-3.7-0.21
		c-1.65-0.18-3.26-0.48-4.83-0.9c-2.03-0.53-3.98-1.26-5.83-2.15c-1.01-0.48-1.99-1.02-2.94-1.59c-1.13-0.7-2.22-1.46-3.26-2.28
		c-0.95-0.75-1.86-1.55-2.72-2.4c0.72-4.2,4.75-17.32,27.11-17.67c25.08-0.39,25.46-11.96,27.39-17.26
		c0.48,1.33,0.88,2.69,1.19,4.09c0.17,0.77,0.31,1.54,0.43,2.33v0.01C1139.725,610.636,1139.845,612.256,1139.845,613.896z"/>
	<path style="opacity:0.3;fill:#212531;" d="M1139.255,620.146c-0.57,3.02-1.55,5.89-2.88,8.56h-0.01c-1.73,3.47-4.06,6.6-6.84,9.26
		c-1.8,1.71-3.8,3.22-5.95,4.49c-4.96,2.95-10.74,4.64-16.92,4.64c-1.25,0-2.49-0.07-3.7-0.21c-1.65-0.18-3.26-0.48-4.83-0.9
		c-2.03-0.53-3.98-1.26-5.83-2.15c-1.01-0.48-1.99-1.02-2.94-1.59c-1.13-0.7-2.22-1.46-3.26-2.28c1.69-5.4,7.38-15.1,26.56-15.4
		c22.58-0.35,25.14-9.76,26.84-15.5c0.23,1.57,0.35,3.19,0.35,4.83C1139.845,616.036,1139.645,618.126,1139.255,620.146z"/>
	<path style="opacity:0.3;fill:#212531;" d="M1139.255,620.146c-0.57,3.02-1.55,5.89-2.88,8.56h-0.01c-1.73,3.47-4.06,6.6-6.84,9.26
		c-1.8,1.71-3.8,3.22-5.95,4.49c-4.96,2.95-10.74,4.64-16.92,4.64c-1.25,0-2.49-0.07-3.7-0.21c-1.65-0.18-3.26-0.48-4.83-0.9
		c-2.03-0.53-3.98-1.26-5.83-2.15c-1.01-0.48-1.99-1.02-2.94-1.59c2.84-5.31,9.52-11.77,25.13-12.02
		C1130.725,629.976,1136.605,625.036,1139.255,620.146z"/>
	<path style="opacity:0.3;fill:#212531;" d="M1116.485,633.396c9.99-0.15,16.07-2.08,19.88-4.69c-1.73,3.47-4.06,6.6-6.84,9.26
		c-1.8,1.71-3.8,3.22-5.95,4.49c-4.96,2.95-10.74,4.64-16.92,4.64c-1.25,0-2.49-0.07-3.7-0.21c-1.65-0.18-3.26-0.48-4.83-0.9
		c-2.03-0.53-3.98-1.26-5.83-2.15C1095.585,638.906,1102.395,633.616,1116.485,633.396z"/>
	<path style="opacity:0.3;fill:#212531;" d="M1119.485,638.896c3.92-0.06,7.23-0.39,10.04-0.93c-1.8,1.71-3.8,3.22-5.95,4.49
		c-4.96,2.95-10.74,4.64-16.92,4.64c-1.25,0-2.49-0.07-3.7-0.21c-1.65-0.18-3.26-0.48-4.83-0.9
		C1102.055,642.266,1108.595,639.066,1119.485,638.896z"/>
	<path style="opacity:0.3;fill:#212531;" d="M1123.575,642.456c-4.96,2.95-10.74,4.64-16.92,4.64c-1.25,0-2.49-0.07-3.7-0.21
		c3.99-2.42,9.66-4.19,17.7-4.32C1121.665,642.546,1122.645,642.516,1123.575,642.456z"/>
</g>
<g>
	<path style="fill:#4B3B70;" d="M1772.988,613.896c0,2.14-0.2,4.23-0.59,6.25c-0.57,3.02-1.55,5.89-2.88,8.56h-0.01
		c-1.73,3.47-4.06,6.6-6.84,9.26c-1.8,1.71-3.8,3.22-5.95,4.49c-4.96,2.95-10.74,4.64-16.92,4.64c-1.25,0-2.49-0.07-3.7-0.21
		c-1.65-0.18-3.26-0.48-4.83-0.9c-2.03-0.53-3.98-1.26-5.83-2.15c-1.01-0.48-1.99-1.02-2.94-1.59c-1.13-0.7-2.22-1.46-3.26-2.28
		c-0.95-0.75-1.86-1.55-2.72-2.4c-1.47-1.45-2.8-3.02-3.98-4.72c-0.56-0.81-1.09-1.64-1.58-2.5c-0.1-0.18-0.2-0.35-0.3-0.53
		c-2.59-4.73-4.06-10.15-4.06-15.92c0-18.33,14.86-33.19,33.2-33.19c11.62,0,21.85,5.97,27.77,15.02c1.25,1.9,2.3,3.93,3.14,6.07
		c0.11,0.28,0.21,0.56,0.31,0.84c0.48,1.33,0.88,2.69,1.19,4.09c0.17,0.77,0.31,1.54,0.43,2.33v0.01
		C1772.868,610.636,1772.988,612.256,1772.988,613.896z"/>
	<path style="opacity:0.3;fill:#212531;" d="M1772.988,613.896c0,2.14-0.2,4.23-0.59,6.25c-0.57,3.02-1.55,5.89-2.88,8.56h-0.01
		c-1.73,3.47-4.06,6.6-6.84,9.26c-1.8,1.71-3.8,3.22-5.95,4.49c-4.96,2.95-10.74,4.64-16.92,4.64c-1.25,0-2.49-0.07-3.7-0.21
		c-1.65-0.18-3.26-0.48-4.83-0.9c-2.03-0.53-3.98-1.26-5.83-2.15c-1.01-0.48-1.99-1.02-2.94-1.59c-1.13-0.7-2.22-1.46-3.26-2.28
		c-0.95-0.75-1.86-1.55-2.72-2.4c-1.47-1.45-2.8-3.02-3.98-4.72c0,0,0.62-18.53,27.26-18.95c26.63-0.41,25.41-13.43,27.77-18.17
		c1.25,1.9,2.3,3.93,3.14,6.07c0.11,0.28,0.21,0.56,0.31,0.84c0.48,1.33,0.88,2.69,1.19,4.09c0.17,0.77,0.31,1.54,0.43,2.33v0.01
		C1772.868,610.636,1772.988,612.256,1772.988,613.896z"/>
	<path style="opacity:0.3;fill:#212531;" d="M1772.988,613.896c0,2.14-0.2,4.23-0.59,6.25c-0.57,3.02-1.55,5.89-2.88,8.56h-0.01
		c-1.73,3.47-4.06,6.6-6.84,9.26c-1.8,1.71-3.8,3.22-5.95,4.49c-4.96,2.95-10.74,4.64-16.92,4.64c-1.25,0-2.49-0.07-3.7-0.21
		c-1.65-0.18-3.26-0.48-4.83-0.9c-2.03-0.53-3.98-1.26-5.83-2.15c-1.01-0.48-1.99-1.02-2.94-1.59c-1.13-0.7-2.22-1.46-3.26-2.28
		c-0.95-0.75-1.86-1.55-2.72-2.4c0.72-4.2,4.75-17.32,27.11-17.67c25.08-0.39,25.46-11.96,27.39-17.26
		c0.48,1.33,0.88,2.69,1.19,4.09c0.17,0.77,0.31,1.54,0.43,2.33v0.01C1772.868,610.636,1772.988,612.256,1772.988,613.896z"/>
	<path style="opacity:0.3;fill:#212531;" d="M1772.398,620.146c-0.57,3.02-1.55,5.89-2.88,8.56h-0.01c-1.73,3.47-4.06,6.6-6.84,9.26
		c-1.8,1.71-3.8,3.22-5.95,4.49c-4.96,2.95-10.74,4.64-16.92,4.64c-1.25,0-2.49-0.07-3.7-0.21c-1.65-0.18-3.26-0.48-4.83-0.9
		c-2.03-0.53-3.98-1.26-5.83-2.15c-1.01-0.48-1.99-1.02-2.94-1.59c-1.13-0.7-2.22-1.46-3.26-2.28c1.69-5.4,7.38-15.1,26.56-15.4
		c22.58-0.35,25.14-9.76,26.84-15.5c0.23,1.57,0.35,3.19,0.35,4.83C1772.988,616.036,1772.788,618.126,1772.398,620.146z"/>
	<path style="opacity:0.3;fill:#212531;" d="M1772.398,620.146c-0.57,3.02-1.55,5.89-2.88,8.56h-0.01c-1.73,3.47-4.06,6.6-6.84,9.26
		c-1.8,1.71-3.8,3.22-5.95,4.49c-4.96,2.95-10.74,4.64-16.92,4.64c-1.25,0-2.49-0.07-3.7-0.21c-1.65-0.18-3.26-0.48-4.83-0.9
		c-2.03-0.53-3.98-1.26-5.83-2.15c-1.01-0.48-1.99-1.02-2.94-1.59c2.84-5.31,9.52-11.77,25.13-12.02
		C1763.868,629.976,1769.748,625.036,1772.398,620.146z"/>
	<path style="opacity:0.3;fill:#212531;" d="M1749.628,633.396c9.99-0.15,16.07-2.08,19.88-4.69c-1.73,3.47-4.06,6.6-6.84,9.26
		c-1.8,1.71-3.8,3.22-5.95,4.49c-4.96,2.95-10.74,4.64-16.92,4.64c-1.25,0-2.49-0.07-3.7-0.21c-1.65-0.18-3.26-0.48-4.83-0.9
		c-2.03-0.53-3.98-1.26-5.83-2.15C1728.728,638.906,1735.538,633.616,1749.628,633.396z"/>
	<path style="opacity:0.3;fill:#212531;" d="M1752.628,638.896c3.92-0.06,7.23-0.39,10.04-0.93c-1.8,1.71-3.8,3.22-5.95,4.49
		c-4.96,2.95-10.74,4.64-16.92,4.64c-1.25,0-2.49-0.07-3.7-0.21c-1.65-0.18-3.26-0.48-4.83-0.9
		C1735.198,642.266,1741.738,639.066,1752.628,638.896z"/>
	<path style="opacity:0.3;fill:#212531;" d="M1756.718,642.456c-4.96,2.95-10.74,4.64-16.92,4.64c-1.25,0-2.49-0.07-3.7-0.21
		c3.99-2.42,9.66-4.19,17.7-4.32C1754.808,642.546,1755.788,642.516,1756.718,642.456z"/>
</g>
<g>
	<path style="fill:#4B3B70;" d="M827.378,806.261c0,1.721-0.161,3.402-0.474,5.026c-0.458,2.429-1.246,4.737-2.316,6.884h-0.008
		c-1.391,2.791-3.265,5.308-5.501,7.447c-1.448,1.375-3.056,2.589-4.785,3.611c-3.989,2.372-8.637,3.731-13.607,3.731
		c-1.005,0-2.002-0.056-2.975-0.169c-1.327-0.145-2.622-0.386-3.884-0.724c-1.633-0.426-3.201-1.013-4.688-1.729
		c-0.812-0.386-1.6-0.82-2.364-1.279c-0.909-0.563-1.785-1.174-2.622-1.834c-0.764-0.603-1.496-1.246-2.187-1.93
		c-1.182-1.166-2.252-2.429-3.201-3.796c-0.45-0.651-0.877-1.319-1.271-2.01c-0.08-0.145-0.161-0.281-0.241-0.426
		c-2.083-3.804-3.265-8.162-3.265-12.803c0-14.741,11.95-26.691,26.699-26.691c9.345,0,17.571,4.801,22.332,12.079
		c1.005,1.528,1.85,3.16,2.525,4.881c0.089,0.225,0.169,0.45,0.249,0.676c0.386,1.07,0.708,2.163,0.957,3.289
		c0.137,0.619,0.249,1.238,0.346,1.874v0.008C827.282,803.64,827.378,804.942,827.378,806.261z"/>
	<path style="opacity:0.3;fill:#212531;" d="M827.378,806.261c0,1.721-0.161,3.402-0.474,5.026
		c-0.458,2.429-1.246,4.737-2.316,6.884h-0.008c-1.391,2.791-3.265,5.308-5.501,7.447c-1.448,1.375-3.056,2.589-4.785,3.611
		c-3.989,2.372-8.637,3.731-13.607,3.731c-1.005,0-2.002-0.056-2.975-0.169c-1.327-0.145-2.622-0.386-3.884-0.724
		c-1.633-0.426-3.201-1.013-4.688-1.729c-0.812-0.386-1.6-0.82-2.364-1.279c-0.909-0.563-1.785-1.174-2.622-1.834
		c-0.764-0.603-1.496-1.246-2.187-1.93c-1.182-1.166-2.252-2.429-3.201-3.796c0,0,0.499-14.902,21.922-15.239
		c21.415-0.33,20.434-10.8,22.332-14.612c1.005,1.528,1.85,3.16,2.525,4.881c0.089,0.225,0.169,0.45,0.249,0.676
		c0.386,1.07,0.708,2.163,0.957,3.289c0.137,0.619,0.249,1.238,0.346,1.874v0.008C827.282,803.64,827.378,804.942,827.378,806.261z"
		/>
	<path style="opacity:0.3;fill:#212531;" d="M827.378,806.261c0,1.721-0.161,3.402-0.474,5.026
		c-0.458,2.429-1.246,4.737-2.316,6.884h-0.008c-1.391,2.791-3.265,5.308-5.501,7.447c-1.448,1.375-3.056,2.589-4.785,3.611
		c-3.989,2.372-8.637,3.731-13.607,3.731c-1.005,0-2.002-0.056-2.975-0.169c-1.327-0.145-2.622-0.386-3.884-0.724
		c-1.633-0.426-3.201-1.013-4.688-1.729c-0.812-0.386-1.6-0.82-2.364-1.279c-0.909-0.563-1.785-1.174-2.622-1.834
		c-0.764-0.603-1.496-1.246-2.187-1.93c0.579-3.378,3.82-13.929,21.802-14.21c20.169-0.314,20.475-9.618,22.027-13.88
		c0.386,1.07,0.708,2.163,0.957,3.289c0.137,0.619,0.249,1.238,0.346,1.874v0.008C827.282,803.64,827.378,804.942,827.378,806.261z"
		/>
	<path style="opacity:0.3;fill:#212531;" d="M826.904,811.287c-0.458,2.429-1.246,4.737-2.316,6.884h-0.008
		c-1.391,2.791-3.265,5.308-5.501,7.447c-1.448,1.375-3.056,2.589-4.785,3.611c-3.989,2.372-8.637,3.731-13.607,3.731
		c-1.005,0-2.002-0.056-2.975-0.169c-1.327-0.145-2.622-0.386-3.884-0.724c-1.633-0.426-3.201-1.013-4.688-1.729
		c-0.812-0.386-1.6-0.82-2.364-1.279c-0.909-0.563-1.785-1.174-2.622-1.834c1.359-4.343,5.935-12.143,21.359-12.384
		c18.159-0.281,20.217-7.849,21.584-12.465c0.185,1.263,0.281,2.565,0.281,3.884C827.378,807.982,827.217,809.663,826.904,811.287z"
		/>
	<path style="opacity:0.3;fill:#212531;" d="M826.904,811.287c-0.458,2.429-1.246,4.737-2.316,6.884h-0.008
		c-1.391,2.791-3.265,5.308-5.501,7.447c-1.448,1.375-3.056,2.589-4.785,3.611c-3.989,2.372-8.637,3.731-13.607,3.731
		c-1.005,0-2.002-0.056-2.975-0.169c-1.327-0.145-2.622-0.386-3.884-0.724c-1.633-0.426-3.201-1.013-4.688-1.729
		c-0.812-0.386-1.6-0.82-2.364-1.279c2.284-4.27,7.656-9.465,20.209-9.666C820.044,819.193,824.773,815.22,826.904,811.287z"/>
	<path style="opacity:0.3;fill:#212531;" d="M808.592,821.943c8.034-0.121,12.923-1.673,15.987-3.772
		c-1.391,2.791-3.265,5.308-5.501,7.447c-1.448,1.375-3.056,2.589-4.785,3.611c-3.989,2.372-8.637,3.731-13.607,3.731
		c-1.005,0-2.002-0.056-2.975-0.169c-1.327-0.145-2.622-0.386-3.884-0.724c-1.633-0.426-3.201-1.013-4.688-1.729
		C791.785,826.374,797.261,822.12,808.592,821.943z"/>
	<path style="opacity:0.3;fill:#212531;" d="M811.005,826.366c3.152-0.048,5.814-0.314,8.074-0.748
		c-1.448,1.375-3.056,2.589-4.785,3.611c-3.989,2.372-8.637,3.731-13.607,3.731c-1.005,0-2.002-0.056-2.975-0.169
		c-1.327-0.145-2.622-0.386-3.884-0.724C796.988,829.076,802.247,826.503,811.005,826.366z"/>
	<path style="opacity:0.3;fill:#212531;" d="M814.294,829.229c-3.989,2.372-8.637,3.731-13.607,3.731
		c-1.005,0-2.002-0.056-2.975-0.169c3.209-1.946,7.768-3.37,14.234-3.474C812.758,829.301,813.546,829.277,814.294,829.229z"/>
</g>
<path style="opacity:0.4;fill:#4B3B70;" d="M1036.51,525.17c-18.64,52.05-68.37,89.56-148.02,89.56H839.1
	c-0.61-0.06-1.17-0.11-1.77-0.11c-0.39,0-0.72,0-1.05-0.06h-3.43c-64.5,0-117.56,48.73-124.33,111.45
	c-0.12,0.41-0.24,0.81-0.35,1.22V623.85c14.77-52.62,63.08-91.14,120.42-91.14h3.43c0.33,0.06,0.66,0.06,1.05,0.06
	c0.6,0,1.16,0.05,1.77,0.11h49.39c58.28,0,100.54-20.08,126.33-51.25c3.88,4.16,7.43,8.58,10.65,13.23c1.3,1.87,2.54,3.79,3.74,5.74
	c1.53,2.49,2.97,5.05,4.32,7.67c0.56,1.1,1.12,2.2,1.65,3.32c0.59,1.23,1.17,2.48,1.72,3.74
	C1034.05,518.53,1035.34,521.81,1036.51,525.17z"/>
<path style="opacity:0.5;fill:#4B3B70;" d="M1036.51,525.17c-18.64,52.05-68.37,89.56-148.02,89.56H839.1
	c-0.61-0.06-1.17-0.11-1.77-0.11c-0.39,0-0.72,0-1.05-0.06h-3.43c-64.5,0-117.56,48.73-124.33,111.45
	c-0.14,1.23-0.25,2.47-0.35,3.72v-65.27c14.77-52.62,63.08-91.14,120.42-91.14h3.43c0.33,0.06,0.66,0.06,1.05,0.06
	c0.6,0,1.16,0.05,1.77,0.11h49.39c70.86,0,118.04-29.69,140.72-72.89c1.53,2.49,2.97,5.05,4.32,7.67c0.56,1.1,1.12,2.2,1.65,3.32
	c0.59,1.23,1.17,2.48,1.72,3.74C1034.05,518.53,1035.34,521.81,1036.51,525.17z"/>
</svg>
